<?xml version="1.0" encoding="utf-8"?>
<!-- Generator: Adobe Illustrator 26.0.3, SVG Export Plug-In . SVG Version: 6.00 Build 0)  -->
<svg version="1.1" id="Layer_1" xmlns="http://www.w3.org/2000/svg" xmlns:xlink="http://www.w3.org/1999/xlink" x="0px" y="0px"
	 viewBox="0 0 1920 1080" style="enable-background:new 0 0 1920 1080;" xml:space="preserve">
<style type="text/css">
	.st0{fill:#FAEBD7;stroke:#FAEBD7;stroke-miterlimit:10;}
	.st1{fill:#CD0000;stroke:#CD0000;stroke-miterlimit:10;}
	.st2{fill:#006837;stroke:#006837;stroke-miterlimit:10;}
	.st3{fill:#F7931E;stroke:#F7931E;stroke-miterlimit:10;}
	.st4{fill:#FBB03B;stroke:#FBB03B;stroke-miterlimit:10;}
	.st5{fill:#020092;}
	.st6{fill:#FF9966;}
	.st7{fill:#020092;stroke:#020092;stroke-miterlimit:10;}
	.st8{fill:#2E3192;}
	.st9{fill:#FF9966;stroke:#FF9966;stroke-miterlimit:10;}
</style>
<rect x="-81.5" y="2409.5" class="st0" width="1920" height="1081"/>
<path class="st1" d="M1680.9,2575.5c-2.2,19.7,11.7,42.9,34.9,46.9c22.8,3.9,43.6-12.6,47.5-32.7c5.5-28.6-25.6-52.9-33-49.8
	c-2.1,0.9-3.5,4.6-6.3,4.3c-2.8-0.3-3.5-4-5.5-5.3C1711.9,2534.8,1683.6,2550.5,1680.9,2575.5z"/>
<path class="st2" d="M1726.9,2545.8l-5.4-1.8c4.9-4.9,9.8-9.9,14.7-14.8c1.4,1.3,2.8,2.6,4.2,4
	C1735.9,2537.4,1731.4,2541.6,1726.9,2545.8z"/>
<polygon class="st2" points="1721.4,2544.9 1726.2,2545.7 1729.2,2526.8 1724.4,2526 "/>
<path class="st2" d="M1726,2540.4l-3.5,4.5c-2.8-6.5-5.6-12.9-8.5-19.4c1.7-0.9,3.4-1.7,5.1-2.6
	C1721.4,2528.8,1723.7,2534.6,1726,2540.4z"/>
<path class="st2" d="M1724.5,2540.5l-1.5,4.2c-4.1-4.2-8.2-8.4-12.3-12.6c1.1-1,2.2-2.1,3.3-3.1
	C1717.5,2532.9,1721,2536.7,1724.5,2540.5z"/>
<polygon class="st2" points="1728.1,2547.1 1720.6,2545.8 1721.1,2542.7 1728.6,2544 "/>
<ellipse transform="matrix(0.1554 -0.9878 0.9878 0.1554 -1131.9027 3791.9224)" class="st3" cx="1651.7" cy="2557.9" rx="57.6" ry="13.9"/>
<polygon class="st2" points="1661.5,2502.3 1658.8,2502.2 1661.1,2443.2 1663.8,2443.4 "/>
<polygon class="st2" points="1661.8,2502.6 1659.1,2502.1 1668.3,2444 1670.9,2444.4 "/>
<polygon class="st2" points="1661.5,2502.5 1658.9,2501.8 1674.3,2445 1676.9,2445.8 "/>
<polygon class="st2" points="1661.5,2502.2 1659,2501.3 1679.6,2446.2 1682.2,2447.2 "/>
<path class="st4" d="M1665.5,2525.6l-16.5-2.8l0.4-2.2c2,1,4.9,2,8.4,2.6c3.2,0.5,6.1,0.5,8.2,0.3
	C1665.8,2524.2,1665.6,2524.9,1665.5,2525.6z"/>
<path class="st4" d="M1664.7,2538.5l-19.5-3.4l0.4-2.4c2.4,1.1,5.8,2.2,9.9,2.9c3.8,0.6,7.1,0.6,9.6,0.4
	C1665,2536.9,1664.8,2537.7,1664.7,2538.5z"/>
<path class="st4" d="M1664,2553.2l-23-4l0.4-2.8c2.8,1.2,6.8,2.6,11.6,3.4c4.5,0.7,8.4,0.7,11.3,0.5
	C1664.3,2551.3,1664.1,2552.3,1664,2553.2z"/>
<path class="st4" d="M1661.9,2567.6l-23.3-4l0.5-3c2.9,1.3,6.9,2.8,11.8,3.6c4.6,0.7,8.5,0.7,11.5,0.4
	C1662.2,2565.6,1662,2566.6,1661.9,2567.6z"/>
<path class="st4" d="M1657.7,2581.1l-19.5-3.4l0.4-2.4c2.4,1.1,5.8,2.2,9.9,2.9c3.8,0.6,7.1,0.6,9.6,0.4
	C1658,2579.6,1657.9,2580.4,1657.7,2581.1z"/>
<path class="st4" d="M1654.3,2594.8l-17.3-3l0.2-1.5c2.2,0.8,5.2,1.7,8.8,2.3c3.4,0.6,6.3,0.7,8.5,0.7
	C1654.5,2593.9,1654.4,2594.4,1654.3,2594.8z"/>
<ellipse transform="matrix(0.7045 -0.7097 0.7097 0.7045 -1260.3876 1999.3226)" class="st2" cx="1770.5" cy="2513.1" rx="13.8" ry="62.6"/>
<polygon class="st2" points="1728.1,2469.2 1726.2,2471.3 1718.2,2463.4 1720.1,2461.3 "/>
<g>
	<path class="st5" d="M245.4,2670.2c3.1-8.5,5.8-17.2,8-26c12-47.2,11.9-98.3-0.3-152h33.3v166.1L245.4,2670.2z"/>
	<path d="M286,2492.7v165.2l-17.8,5.2l-22,6.4c3-8.2,5.6-16.6,7.7-25.2c6.9-27.2,9.8-56.1,8.6-86.1c-0.8-21.4-3.8-43.5-8.8-65.5H286
		 M287,2491.7c-11.5,0-22.9,0-34.4,0c8,35.1,15.9,91.6,0.4,152.4c-2.5,9.6-5.3,18.6-8.4,26.9c14.1-4.1,28.2-8.3,42.4-12.4V2491.7
		L287,2491.7z"/>
</g>
<g>
	<path class="st5" d="M285.8,2574.1c-10.2,0-15.5-20.6-15.5-41c0-10.8,1.4-20.9,4-28.3c2-5.8,5.6-12.6,11.5-12.6
		c21.1,0,38.2,18.4,38.2,41S306.9,2574.1,285.8,2574.1z"/>
	<path class="st5" d="M285.8,2492.7c20.8,0,37.7,18.2,37.7,40.5c0,22.3-16.9,40.5-37.7,40.5c-5.7,0-9.1-6.7-11.1-12.3
		c-2.5-7.4-4-17.4-4-28.2C270.8,2513,275.9,2492.7,285.8,2492.7 M285.8,2491.7c-21.4,0-21.4,82.9,0,82.9c21.4,0,38.7-18.6,38.7-41.5
		S307.2,2491.7,285.8,2491.7L285.8,2491.7z"/>
</g>
<g>
	<path class="st5" d="M285.9,2658c-10.2,0-15.5-20.9-15.5-41.5c0-10.9,1.4-21.1,4-28.7c2-5.8,5.6-12.8,11.5-12.8
		c21,0,38.1,18.6,38.1,41.5S306.9,2658,285.9,2658z"/>
	<path class="st5" d="M285.9,2575.6c20.7,0,37.6,18.4,37.6,41s-16.9,41-37.6,41c-5.6,0-9.1-6.8-11-12.4c-2.5-7.5-3.9-17.6-3.9-28.5
		s1.4-21,3.9-28.5C276.8,2582.4,280.3,2575.6,285.9,2575.6 M285.9,2574.6c-21.3,0-21.3,83.9,0,83.9c21.3,0,38.6-18.8,38.6-42
		S307.2,2574.6,285.9,2574.6L285.9,2574.6z"/>
</g>
<g>
	<path class="st6" d="M279.7,2564.4c-1,0-1.8-0.2-2.6-0.5c-4.9-2.2-5.5-12.4-6.2-23.2c-0.5-8.5-1.8-31.2,6.2-34.6
		c0.8-0.3,1.6-0.5,2.6-0.5c9.1,0,24.1,13.7,24.1,29.4c0,9.8-5.5,17.2-8.8,20.7C290.2,2561,284.2,2564.4,279.7,2564.4
		C279.7,2564.4,279.7,2564.4,279.7,2564.4z"/>
	<path class="st6" d="M279.8,2506.2c4.3,0,10.2,3.4,15,8.5c3.2,3.5,8.6,10.8,8.6,20.3c0,9.6-5.4,16.9-8.7,20.4
		c-4.8,5.2-10.7,8.5-15,8.5c-0.9,0-1.7-0.2-2.4-0.5c-4.6-2.1-5.2-12.1-5.9-22.7c-0.5-8.4-1.8-30.8,5.8-34.1
		C278.1,2506.3,278.9,2506.2,279.8,2506.2 M279.8,2505.2c-1,0-2,0.2-2.8,0.5c-8.3,3.6-7,26-6.5,35.1c0.7,11.1,1.3,21.3,6.5,23.6
		c0.8,0.4,1.7,0.5,2.8,0.5c9,0,24.7-13.5,24.7-29.9C304.4,2518.8,289,2505.2,279.8,2505.2L279.8,2505.2z"/>
</g>
<g>
	<path class="st6" d="M279.5,2646.5c-1,0-1.8-0.2-2.6-0.5c-4.9-2.2-5.5-12.4-6.2-23.2c-0.5-8.5-1.8-31.2,6.2-34.6
		c0.8-0.3,1.6-0.5,2.6-0.5c9.1,0,24.1,13.7,24.1,29.4c0,9.8-5.5,17.2-8.8,20.7C289.9,2643.1,283.9,2646.5,279.5,2646.5
		C279.5,2646.5,279.5,2646.5,279.5,2646.5z"/>
	<path class="st6" d="M279.5,2588.2c4.3,0,10.2,3.4,15,8.5c3.2,3.5,8.6,10.8,8.6,20.3c0,9.6-5.4,16.9-8.7,20.4
		c-4.8,5.2-10.7,8.5-15,8.5c-0.9,0-1.7-0.2-2.4-0.5c-4.6-2.1-5.2-12.1-5.9-22.7c-0.5-8.4-1.8-30.8,5.8-34.1
		C277.8,2588.4,278.6,2588.2,279.5,2588.2 M279.5,2587.2c-1,0-2,0.2-2.8,0.5c-8.3,3.6-7,26-6.5,35.1c0.7,11.1,1.3,21.3,6.5,23.6
		c0.8,0.4,1.7,0.5,2.8,0.5c9,0,24.7-13.5,24.7-29.9C304.1,2600.9,288.7,2587.2,279.5,2587.2L279.5,2587.2z"/>
</g>
<path class="st7" d="M340.7,2566.9"/>
<g>
	<path class="st8" d="M368.9,2655.8c0.2-4.5,0.3-8.9,0.4-13.4H400l19.2-21.7l-2.1-20.5l-13.6-13.3l-20.3-19
		c-0.3-0.4-0.5-0.8-0.9-1.1l-0.1-0.1c0-0.3-0.1-0.5-0.2-0.8l-0.1-0.3h-0.1c-0.1-0.3-0.2-0.7-0.2-1c0-0.1,0-0.2,0-0.2
		c-0.1-0.4-0.2-0.7-0.3-0.9v-21.8c0.1-0.4,0.2-0.7,0.3-1.1l0.2-0.7h0c0.1-0.3,0.2-0.6,0.3-0.9c0.1-0.2,0.1-0.4,0.2-0.6l0.2-0.3
		c3.5-5,7.1-10.1,10.6-15.1c0.2-0.2,0.4-0.4,0.6-0.5c0.3-0.2,0.5-0.5,0.8-0.7c0.1-0.1,0.2-0.2,0.2-0.2l0.1-0.1
		c0.1-0.1,0.1-0.1,0.2-0.1l32.2-10.7l1.7,12.5l-26.1,4.5l-0.1,0.2c-3,4.2-6,8.4-9,12.7l-4.3,6v16l17.2,16.1c0.3,0.3,0.6,0.6,0.9,0.9
		c0.1,0.1,0.3,0.3,0.5,0.4c0.1,0.1,0.2,0.1,0.3,0.2l0.1,0.1c0.2,0.2,0.5,0.3,0.8,0.5c0.3,0.3,0.7,0.5,1,0.7l15.2,14.9
		c0.3,0.5,0.6,1,1,1.5c0.1,0.1,0.1,0.2,0.1,0.3c0.1,0.2,0.2,0.5,0.3,0.7c0,0,0.2,0.4,0.2,0.5c0,0.1,0.1,0.2,0.1,0.4
		c0,0.1,0.1,0.2,0.1,0.3c0.1,0.3,0.1,0.7,0.2,1c0,0.2,0.1,0.3,0.1,0.5l1.1,10.1c0,0.6,0.1,1.1,0.1,1.7c0.2,2.2,0.3,4.4,0.1,6.5
		c-0.1,0.5-0.2,1-0.2,1.5c0,0.3-0.1,0.5-0.2,0.7l-0.1,0.2c0,0.1,0,0.2-0.1,0.3l0,0.1c-1.3,2.1-2.6,4.2-3.9,6.3l-0.6,1
		c-0.1,0.1-0.1,0.2-0.1,0.2l-0.2,0.3c-1.2,1.8-2.4,3.7-3.6,5.5l-0.1,0.1v0l-1.7,2.6c-0.3,0.3-0.5,0.7-0.8,1.1l-0.7,1.2
		c-1.3,2-2.6,4-3.9,6c-0.1,0.1-0.1,0.2-0.2,0.3c-0.1,0.1-0.2,0.3-0.3,0.4c0,0-0.6,0.7-0.7,0.8c-0.8,0.4-1.5,0.8-2.3,1.1l-0.3,0.1v0
		c-0.5,0.3-1.1,0.5-1.6,0.8c-1.2,0.6-2.5,1.1-3.7,1.7L368.9,2655.8z"/>
	<path class="st5" d="M426.7,2511.2l0.6,4.3l1,7.1l-25.4,4.4l-0.4,0.1l-0.2,0.3c-3,4.1-5.9,8.3-8.9,12.4l-4.4,6.1l-0.2,0.3v0.3v15.6
		v0.4l0.3,0.3l17,15.9c0.3,0.3,0.6,0.7,1,1c0.2,0.2,0.3,0.3,0.5,0.4c0.1,0.1,0.2,0.1,0.3,0.2c0.1,0.1,0.1,0.1,0.2,0.1
		c0.2,0.1,0.5,0.3,0.8,0.5c0.3,0.3,0.6,0.5,0.9,0.7l15.1,14.8c0.3,0.5,0.6,1,1,1.5l0,0c0,0.1,0.1,0.1,0.1,0.2l0,0l0,0
		c0.1,0.2,0.2,0.4,0.3,0.6l0.1,0.2c0,0.1,0.1,0.2,0.1,0.3c0,0.1,0.1,0.3,0.1,0.4c0,0.1,0.1,0.2,0.1,0.2c0.1,0.3,0.1,0.6,0.2,1
		c0,0.2,0.1,0.3,0.1,0.5c0.2,1.7,0.4,3.3,0.6,5c0.2,1.7,0.4,3.4,0.6,5c0,0.6,0.1,1.2,0.1,1.7c0.2,2.1,0.3,4.3,0.1,6.4
		c0,0.5-0.1,1-0.2,1.4c0,0.3-0.1,0.5-0.2,0.7l0,0.1l0,0.1l0,0l0,0c0,0.1,0,0.2-0.1,0.2c-1.3,2.1-2.6,4.3-3.9,6.4l-0.5,0.9l0,0l0,0
		c0,0-0.1,0.1-0.1,0.1c-1.2,1.9-2.5,3.8-3.7,5.8l-0.2,0.3v0l-0.7,1c-0.3,0.5-0.6,0.9-0.9,1.4c-0.3,0.4-0.6,0.8-0.8,1.2l-0.3,0.5
		l-0.4,0.6c-1.3,2-2.6,4-3.8,5.9l0,0c-0.1,0.1-0.2,0.2-0.2,0.3c-0.1,0.1-0.2,0.3-0.3,0.4l-0.3,0.3c-0.1,0.1-0.2,0.3-0.3,0.4
		c-0.7,0.4-1.4,0.7-2.1,1.1l-0.6,0.3v0c-0.4,0.2-0.9,0.4-1.4,0.6c-1.2,0.5-2.4,1.1-3.7,1.7c-5.8,0.7-11.6,1.3-17.4,2
		c-5.6,0.6-11.1,1.3-16.7,1.9c0.1-4.1,0.3-8.2,0.4-12.3h29.9h0.4l0.3-0.3l18.9-21.4l0.3-0.3l0-0.4c-0.3-3.4-0.7-6.7-1-10.1
		c-0.3-3.4-0.7-6.7-1-10.1l0-0.4l-0.3-0.3l-13.5-13.2l-20.3-19c-0.2-0.4-0.5-0.8-0.8-1.1l0,0c0,0,0,0,0,0c0-0.2-0.1-0.5-0.2-0.8
		l-0.2-0.7h-0.1c0-0.2-0.1-0.4-0.1-0.6l0,0c0-0.1,0-0.2,0-0.2c-0.1-0.4-0.2-0.7-0.2-0.9v-21.6c0.1-0.3,0.2-0.7,0.3-1l0.4-1.2
		c0-0.1,0.1-0.2,0.1-0.3c0.1-0.2,0.1-0.3,0.2-0.5l0.2-0.3c3.5-5,7-10,10.5-15c0.2-0.2,0.4-0.3,0.6-0.5c0.2-0.2,0.5-0.5,0.8-0.7l0,0
		l0,0c0,0,0.1-0.1,0.2-0.1l0,0l0,0l0,0l0,0l0.1,0c0,0,0,0,0,0l11.3-3.8L426.7,2511.2 M427.5,2509.9l-21.3,7.1l-11.5,3.8
		c-0.1,0-0.1,0.1-0.2,0.1c-0.1,0-0.1,0.1-0.2,0.1c-0.1,0.1-0.2,0.1-0.2,0.2c-0.5,0.4-0.9,0.9-1.4,1.3c-3.6,5.2-7.2,10.3-10.9,15.5
		c-0.1,0.2-0.2,0.4-0.2,0.6c-0.2,0.5-0.3,1-0.5,1.6h0c-0.1,0.4-0.2,0.8-0.3,1.1v21.9c0.1,0.2,0.2,0.5,0.3,1c0,0.1,0,0.2,0,0.2
		c0.1,0.3,0.2,0.7,0.2,1.1c0,0.1,0.1,0.2,0.1,0.3h0.1c0.1,0.3,0.2,0.6,0.2,0.9c0.1,0.1,0.1,0.2,0.1,0.3c0.3,0.4,0.6,0.7,0.9,1.2
		l20.4,19l13.5,13.2c0.7,6.7,1.4,13.4,2.1,20.1l-18.9,21.4h-30.9c-0.2,4.8-0.3,9.6-0.5,14.5c11.8-1.4,23.6-2.7,35.4-4.1
		c1.3-0.6,2.6-1.1,3.8-1.7c0.6-0.3,1.3-0.6,1.9-0.9v0c0.8-0.4,1.6-0.8,2.4-1.2c0.2-0.3,0.5-0.6,0.7-0.9c0.2-0.2,0.4-0.5,0.6-0.8
		c1.3-2,2.6-4,3.9-6c0.2-0.4,0.4-0.8,0.7-1.2c0.2-0.4,0.5-0.7,0.8-1.1c0.6-0.9,1.2-1.8,1.8-2.7v0c1.3-1.9,2.5-3.9,3.8-5.8
		c0-0.1,0.1-0.1,0.1-0.2c1.5-2.5,3-4.9,4.6-7.4l0,0v0c0-0.1,0.1-0.3,0.1-0.4c0-0.1,0-0.1,0.1-0.2c0.1-0.3,0.1-0.5,0.2-0.8
		c0.1-0.5,0.2-1,0.2-1.5c0.3-2.7-0.1-5.6-0.3-8.3c-0.4-3.4-0.8-6.8-1.1-10.1c0-0.1-0.1-0.3-0.1-0.4c-0.1-0.4-0.1-0.7-0.2-1.1
		c0-0.2-0.2-0.6-0.2-0.6c0,0,0,0,0.1,0.1c0,0,0-0.1,0-0.1c-0.1-0.2-0.2-0.5-0.3-0.7c-0.1-0.2-0.2-0.4-0.3-0.7c0-0.1-0.1-0.2-0.1-0.3
		l-0.1-0.1c-0.3-0.5-0.7-0.9-1-1.5l-15.3-15c-0.3-0.2-0.7-0.4-1-0.7c0,0,0,0,0,0c-0.3-0.2-0.5-0.3-0.8-0.5c0,0-0.1,0-0.1-0.1
		c-0.1-0.1-0.2-0.1-0.3-0.2c-0.2-0.1-0.3-0.2-0.5-0.4c-0.3-0.3-0.6-0.6-0.9-0.9l-17-15.9v-15.6c4.4-6.2,8.8-12.4,13.2-18.5l26.4-4.6
		C428.8,2518.9,428.2,2514.4,427.5,2509.9L427.5,2509.9z"/>
</g>
<g>
	<rect x="338.8" y="2562.8" class="st5" width="21" height="90.8"/>
	<path d="M359.2,2563.3v89.8h-20v-89.8H359.2 M360.2,2562.3h-22v91.8h22V2562.3L360.2,2562.3z"/>
</g>
<g>
	<polygon class="st6" points="337.9,2539.4 342.6,2502.5 360.6,2512.7 360.6,2539.4 	"/>
	<path class="st6" d="M343,2503.3l8,4.5l9.1,5.1v25.9h-21.6l3-23.4L343,2503.3 M342.2,2501.7c-1.6,12.7-3.2,25.5-4.8,38.2h23.7
		v-27.5C354.8,2508.8,348.5,2505.3,342.2,2501.7L342.2,2501.7z"/>
</g>
<g>
	<path class="st6" d="M369.5,2647.2c0.1-3.9,0.3-7.7,0.4-11.6h31.1l19.6-19.3l-2.2-18.3l-13.8-11.9l-20.6-16.9
		c-0.3-0.4-0.5-0.7-0.9-1l-0.1-0.1c0-0.2-0.1-0.5-0.2-0.8l-0.1-0.3h-0.1c-0.1-0.3-0.1-0.6-0.2-0.8c0-0.1,0-0.1,0-0.2
		c-0.1-0.4-0.2-0.6-0.3-0.8v-19.3c0.1-0.3,0.2-0.6,0.3-0.9l0.2-0.7h0c0.1-0.2,0.2-0.5,0.3-0.7c0.1-0.2,0.1-0.3,0.2-0.5
		c3.7-4.5,7.3-9.1,11-13.6c0.2-0.2,0.4-0.3,0.6-0.5c0.3-0.2,0.5-0.4,0.8-0.6c0.1-0.1,0.2-0.1,0.2-0.2c0,0,0.1-0.1,0.1-0.1l0.2-0.1
		l32.7-9.5l1.7,11l-26.5,4l-0.1,0.1c-2.9,3.6-5.9,7.2-8.8,10.8l-4.8,5.8v14.2l17.5,14.3c0.3,0.3,0.6,0.6,1,0.8
		c0.1,0.1,0.3,0.2,0.5,0.4c0.1,0,0.2,0.1,0.3,0.2l0.1,0.1c0.2,0.1,0.5,0.3,0.8,0.4c0.3,0.2,0.6,0.4,1,0.6l15.4,13.2
		c0.3,0.5,0.6,0.9,1,1.3c0.1,0.1,0.1,0.2,0.1,0.2c0.1,0.2,0.2,0.4,0.3,0.6c0,0,0.2,0.4,0.2,0.5c0,0.1,0.1,0.2,0.1,0.3
		c0,0.1,0.1,0.2,0.1,0.2c0.1,0.3,0.1,0.6,0.2,0.9c0,0.1,0.1,0.3,0.1,0.4l0.6,4.4l0.6,4.5c0,0.5,0.1,1,0.1,1.5
		c0.2,1.9,0.3,3.9,0.1,5.7c-0.1,0.5-0.2,0.9-0.2,1.3c-0.1,0.2-0.1,0.5-0.2,0.7l-0.1,0.2c0,0.1,0,0.2-0.1,0.3l0,0.1
		c-1.4,1.9-2.7,3.8-4,5.7l-0.6,0.8c-0.1,0.1-0.1,0.2-0.1,0.2l-0.4,0.6c-1.1,1.5-2.2,3-3.4,4.5l-0.1,0.1v0l-1.7,2.3
		c-0.3,0.3-0.5,0.6-0.8,1l-0.7,1c-1.3,1.7-2.6,3.5-3.9,5.3c-0.1,0.1-0.1,0.2-0.2,0.3c-0.1,0.1-0.2,0.3-0.3,0.4c0,0-0.6,0.6-0.7,0.7
		c-0.8,0.3-1.5,0.7-2.3,1l-0.3,0.1v0c-0.5,0.2-1.1,0.5-1.6,0.7c-1.3,0.5-2.5,1-3.8,1.5l-35.3,3.6L369.5,2647.2z"/>
	<path class="st6" d="M428.3,2519.2l0.6,4l0.9,5.9l-25.8,3.9l-0.4,0.1l-0.2,0.3c-3,3.7-6,7.3-9,11l-4.4,5.4l-0.2,0.3v0.4v13.8v0.5
		l0.4,0.3l17.3,14.1c0.3,0.3,0.6,0.6,1,0.9c0.2,0.1,0.3,0.3,0.5,0.4c0.1,0.1,0.2,0.1,0.3,0.2c0.1,0,0.1,0.1,0.2,0.1
		c0.2,0.1,0.5,0.3,0.8,0.4c0.3,0.2,0.6,0.4,0.9,0.6l15.3,13.1c0.3,0.5,0.6,0.9,1,1.3l0,0c0,0,0.1,0.1,0.1,0.1l0,0l0,0
		c0.1,0.2,0.2,0.4,0.3,0.5l0.1,0.2c0,0.1,0.1,0.1,0.1,0.2c0,0.1,0.1,0.3,0.1,0.4c0,0.1,0.1,0.1,0.1,0.2c0.1,0.3,0.1,0.5,0.2,0.8
		c0,0.2,0.1,0.3,0.1,0.5c0.2,1.5,0.4,3,0.6,4.4c0.2,1.5,0.4,3,0.6,4.5c0,0.5,0.1,1,0.1,1.5c0.2,1.9,0.3,3.8,0.1,5.6
		c0,0.4-0.1,0.9-0.2,1.3c0,0.2-0.1,0.4-0.2,0.6l0,0.1l0,0.1l0,0l0,0c0,0.1,0,0.1,0,0.2c-1.4,1.9-2.7,3.9-4.1,5.8l-0.5,0.7
		c0,0-0.1,0.1-0.1,0.1l0,0c-1.3,1.7-2.5,3.4-3.8,5.1l-0.2,0.3v0l-0.7,0.9c-0.3,0.4-0.6,0.8-0.9,1.2c-0.3,0.3-0.6,0.7-0.8,1l-0.7,1
		c-1.3,1.8-2.6,3.5-3.9,5.3c-0.1,0.1-0.2,0.2-0.2,0.3c-0.1,0.1-0.2,0.2-0.3,0.4l-0.3,0.3c-0.1,0.1-0.2,0.2-0.3,0.4
		c-0.7,0.3-1.5,0.7-2.2,1l-0.6,0.3v0c-0.4,0.2-0.9,0.4-1.3,0.6c-1.2,0.5-2.4,1-3.7,1.5c-6,0.6-11.9,1.2-17.9,1.8
		c-5.6,0.6-11.2,1.1-16.8,1.7c0.1-3.6,0.3-7.1,0.4-10.7h30.4h0.4l0.3-0.3l19.3-19l0.3-0.3l-0.1-0.5c-0.4-3-0.7-6-1.1-8.9
		c-0.4-3-0.7-6-1.1-8.9l0-0.4l-0.3-0.3l-13.7-11.7l-20.6-16.8c-0.2-0.3-0.5-0.7-0.8-1c0-0.2-0.1-0.5-0.2-0.7l-0.2-0.6H383
		c0-0.2-0.1-0.3-0.1-0.5c0-0.1,0-0.2,0-0.2c-0.1-0.3-0.2-0.6-0.2-0.8V2546c0.1-0.3,0.2-0.6,0.3-0.8l0.4-1.1c0-0.1,0.1-0.2,0.1-0.3
		c0.1-0.1,0.1-0.3,0.2-0.4l0.2-0.2c3.6-4.4,7.1-8.9,10.7-13.3c0.2-0.1,0.4-0.3,0.6-0.4c0.3-0.2,0.5-0.4,0.8-0.6l0,0l0,0
		c0,0,0.1-0.1,0.2-0.1l0,0l0,0l0.1,0l0.1,0c0,0,0,0,0,0l11.5-3.3L428.3,2519.2 M429.1,2517.9l-21.7,6.3l-11.6,3.4
		c-0.1,0-0.1,0.1-0.2,0.1c-0.1,0-0.1,0.1-0.2,0.1c-0.1,0.1-0.2,0.1-0.3,0.2c-0.5,0.4-1,0.8-1.4,1.1c-3.7,4.6-7.4,9.2-11,13.7
		c-0.1,0.2-0.2,0.4-0.2,0.6c-0.2,0.5-0.4,0.9-0.5,1.4h0c-0.1,0.3-0.2,0.7-0.3,1v19.4c0.1,0.2,0.2,0.5,0.3,0.9c0,0.1,0,0.1,0,0.2
		c0.1,0.3,0.2,0.7,0.3,1c0,0.1,0.1,0.2,0.1,0.2h0.1c0.1,0.2,0.2,0.5,0.2,0.8c0.1,0.1,0.1,0.2,0.1,0.2c0.3,0.3,0.6,0.7,0.9,1
		l20.7,16.9l13.7,11.7c0.7,6,1.4,11.9,2.1,17.9l-19.3,19h-31.4c-0.2,4.3-0.3,8.5-0.5,12.8c12-1.2,24-2.4,36-3.6
		c1.3-0.5,2.6-1,3.9-1.5c0.7-0.3,1.3-0.5,2-0.8v0c0.8-0.3,1.6-0.7,2.4-1.1c0.2-0.3,0.5-0.5,0.8-0.8c0.2-0.2,0.4-0.5,0.6-0.7
		c1.3-1.8,2.6-3.5,3.9-5.3c0.2-0.3,0.5-0.7,0.7-1c0.2-0.3,0.5-0.7,0.8-0.9c0.6-0.8,1.2-1.6,1.8-2.4v0c1.3-1.7,2.6-3.4,3.8-5.1
		c0-0.1,0.1-0.1,0.1-0.1c1.5-2.2,3.1-4.4,4.6-6.6l0,0v0c0-0.1,0.1-0.3,0.1-0.4c0-0.1,0-0.1,0.1-0.2c0.1-0.2,0.1-0.5,0.2-0.7
		c0.1-0.4,0.2-0.9,0.3-1.4c0.3-2.4-0.1-4.9-0.3-7.4c-0.4-3-0.8-6-1.2-9c0-0.1-0.1-0.2-0.1-0.4c-0.1-0.3-0.1-0.6-0.2-1
		c0-0.1-0.2-0.5-0.2-0.5c0,0,0,0,0.1,0.1c0,0,0-0.1,0-0.1c-0.1-0.2-0.2-0.4-0.3-0.6c-0.1-0.2-0.2-0.4-0.3-0.6c0-0.1-0.1-0.2-0.1-0.2
		l-0.1-0.1c-0.3-0.4-0.7-0.8-1-1.3l-15.5-13.3c-0.3-0.2-0.7-0.4-1-0.6c0,0,0,0,0,0c-0.3-0.1-0.5-0.3-0.8-0.5c0,0-0.1,0-0.1-0.1
		c-0.1-0.1-0.2-0.1-0.3-0.2c-0.2-0.1-0.3-0.2-0.5-0.3c-0.3-0.2-0.6-0.5-0.9-0.8l-17.3-14.1v-13.8c4.5-5.5,9-11,13.5-16.4l26.8-4
		C430.4,2525.9,429.7,2521.9,429.1,2517.9L429.1,2517.9z"/>
</g>
<g>
	<path class="st5" d="M467.9,2654.2c0,0-0.2-0.1-0.2-0.1c-0.5-0.8-1-1.5-1.5-2.3c-0.2-0.7-0.5-1.4-0.8-2.2v-119.4h17.3v124H467.9z"
		/>
	<path class="st5" d="M482.2,2530.7v123H468c-0.5-0.7-0.9-1.4-1.3-2.1c-0.3-0.7-0.5-1.5-0.7-2v-118.8H482.2 M483.2,2529.7H465v120
		c0.3,0.8,0.6,1.5,0.8,2.3c0.5,0.8,1,1.7,1.6,2.5c0.1,0.1,0.3,0.1,0.4,0.2h15.5V2529.7L483.2,2529.7z"/>
</g>
<g>
	<rect x="442" y="2509.7" class="st5" width="63.9" height="21.6"/>
	<path class="st5" d="M505.4,2510.2v20.6h-62.9v-20.6H505.4 M506.4,2509.2h-64.9v22.6h64.9V2509.2L506.4,2509.2z"/>
</g>
<g>
	<path class="st5" d="M529.7,2655.4c0,0-0.2-0.1-0.2-0.1c-0.5-0.9-1-1.8-1.5-2.8c-0.2-0.8-0.5-1.7-0.8-2.5v-140.3h17.3v145.7H529.7z
		"/>
	<path class="st5" d="M544.1,2510.2v144.7h-14.1c-0.5-0.9-0.9-1.7-1.4-2.5c-0.3-0.9-0.5-1.8-0.8-2.5v-139.7H544.1 M545.1,2509.2
		h-18.3v140.9c0.3,0.9,0.6,1.8,0.8,2.7c0.5,1,1,2,1.6,2.9c0.1,0.1,0.3,0.1,0.4,0.2h15.5V2509.2L545.1,2509.2z"/>
</g>
<g>
	<ellipse class="st5" cx="555.8" cy="2545.2" rx="28.3" ry="40"/>
	<path class="st5" d="M555.8,2505.7c15.3,0,27.8,17.7,27.8,39.5s-12.5,39.5-27.8,39.5S528,2567,528,2545.2
		S540.5,2505.7,555.8,2505.7 M555.8,2504.7c-15.9,0-28.8,18.1-28.8,40.5s12.9,40.5,28.8,40.5c15.9,0,28.8-18.1,28.8-40.5
		S571.7,2504.7,555.8,2504.7L555.8,2504.7z"/>
</g>
<g>
	<path class="st6" d="M555.8,2569.5c-9.2,0-16.8-10.9-16.8-24.3c0-13.4,7.5-24.3,16.8-24.3s16.8,10.9,16.8,24.3
		C572.6,2558.6,565.1,2569.5,555.8,2569.5z"/>
	<path class="st6" d="M555.8,2521.4c9,0,16.3,10.7,16.3,23.8c0,13.1-7.3,23.8-16.3,23.8s-16.3-10.7-16.3-23.8
		C539.6,2532.1,546.9,2521.4,555.8,2521.4 M555.8,2520.4c-9.5,0-17.3,11.1-17.3,24.8c0,13.7,7.7,24.8,17.3,24.8s17.3-11.1,17.3-24.8
		C573.1,2531.5,565.4,2520.4,555.8,2520.4L555.8,2520.4z"/>
</g>
<g>
	<polygon class="st5" points="537,2584.9 552.7,2570.2 590.6,2640.4 574.9,2655.1 	"/>
	<path class="st5" d="M552.6,2571l37.4,69.2l-15,14l-37.4-69.2L552.6,2571 M552.8,2569.4l-16.5,15.4l38.4,71.1l16.5-15.4
		L552.8,2569.4L552.8,2569.4z"/>
</g>
<g>
	<ellipse class="st5" cx="643.3" cy="2583.8" rx="38.1" ry="74.1"/>
	<path class="st5" d="M643.3,2510.2c20.8,0,37.6,33,37.6,73.6s-16.9,73.6-37.6,73.6s-37.6-33-37.6-73.6S622.5,2510.2,643.3,2510.2
		 M643.3,2509.2c-21.3,0-38.6,33.4-38.6,74.6c0,41.2,17.3,74.6,38.6,74.6s38.6-33.4,38.6-74.6
		C681.9,2542.6,664.6,2509.2,643.3,2509.2L643.3,2509.2z"/>
</g>
<g>
	<path class="st6" d="M643.3,2629c-12.5,0-22.7-20.2-22.7-45.1s10.2-45.1,22.7-45.1c12.5,0,22.7,20.2,22.7,45.1
		S655.8,2629,643.3,2629z"/>
	<path class="st6" d="M643.3,2539.2c12.2,0,22.2,20,22.2,44.6s-10,44.6-22.2,44.6c-12.2,0-22.2-20-22.2-44.6
		S631,2539.2,643.3,2539.2 M643.3,2538.2c-12.8,0-23.2,20.4-23.2,45.6c0,25.2,10.4,45.6,23.2,45.6s23.2-20.4,23.2-45.6
		C666.5,2558.6,656.1,2538.2,643.3,2538.2L643.3,2538.2z"/>
</g>
<path class="st7" d="M610.1,2531"/>
<g>
	<path class="st5" d="M741.5,2675.2c3.1-8.5,5.8-17.2,8-26c12-47.2,11.9-98.3-0.3-152h33.3v166.1L741.5,2675.2z"/>
	<path d="M782,2497.7v165.2l-26.1,7.6l-13.6,4c3-8.2,5.6-16.6,7.7-25.2c6.9-27.2,9.8-56.1,8.6-86.1c-0.8-21.4-3.8-43.5-8.8-65.5H782
		 M783,2496.7c-11.5,0-22.9,0-34.4,0c8,35.1,15.9,91.6,0.4,152.4c-2.5,9.6-5.3,18.6-8.4,26.9c14.1-4.1,28.2-8.3,42.4-12.4V2496.7
		L783,2496.7z"/>
</g>
<g>
	<path class="st5" d="M781.9,2579.1c-10.2,0-15.5-20.6-15.5-41c0-10.8,1.4-20.9,4-28.3c2-5.8,5.6-12.6,11.5-12.6
		c21.1,0,38.2,18.4,38.2,41S802.9,2579.1,781.9,2579.1z"/>
	<path class="st5" d="M781.9,2497.7c20.8,0,37.7,18.2,37.7,40.5s-16.9,40.5-37.7,40.5c-5.7,0-9.1-6.7-11.1-12.3
		c-2.5-7.4-4-17.4-4-28.2C766.9,2518,772,2497.7,781.9,2497.7 M781.9,2496.7c-21.4,0-21.4,82.9,0,82.9c21.4,0,38.7-18.6,38.7-41.5
		S803.2,2496.7,781.9,2496.7L781.9,2496.7z"/>
</g>
<g>
	<path class="st5" d="M782,2663c-10.2,0-15.5-20.9-15.5-41.5c0-10.9,1.4-21.1,4-28.7c2-5.8,5.6-12.8,11.5-12.8
		c21,0,38.1,18.6,38.1,41.5S803,2663,782,2663z"/>
	<path class="st5" d="M782,2580.6c20.7,0,37.6,18.4,37.6,41s-16.9,41-37.6,41c-5.6,0-9.1-6.8-11-12.4c-2.5-7.5-3.9-17.6-3.9-28.5
		s1.4-21,3.9-28.5C772.9,2587.4,776.4,2580.6,782,2580.6 M782,2579.6c-21.3,0-21.3,83.9,0,83.9c21.3,0,38.6-18.8,38.6-42
		S803.3,2579.6,782,2579.6L782,2579.6z"/>
</g>
<g>
	<path class="st6" d="M775.8,2569.4c-1,0-1.8-0.2-2.6-0.5c-4.9-2.2-5.5-12.4-6.2-23.2c-0.5-8.5-1.8-31.2,6.2-34.6
		c0.8-0.3,1.6-0.5,2.6-0.5c9.1,0,24.1,13.7,24.1,29.4c0,9.8-5.5,17.2-8.8,20.7C786.3,2566,780.3,2569.4,775.8,2569.4
		C775.8,2569.4,775.8,2569.4,775.8,2569.4z"/>
	<path class="st6" d="M775.9,2511.2c8.9,0,23.6,13.5,23.6,28.9c0,9.6-5.4,16.9-8.7,20.4c-4.8,5.2-10.7,8.5-15,8.5
		c-0.9,0-1.7-0.2-2.4-0.5c-4.6-2.1-5.2-12.1-5.9-22.7c-0.5-8.4-1.8-30.8,5.8-34.1C774.2,2511.3,775,2511.2,775.9,2511.2
		 M775.9,2510.2c-1,0-2,0.2-2.8,0.5c-8.3,3.6-7,26-6.5,35.1c0.7,11.1,1.3,21.3,6.5,23.6c0.8,0.4,1.7,0.5,2.8,0.5
		c9,0,24.7-13.5,24.7-29.9C800.5,2523.8,785,2510.2,775.9,2510.2L775.9,2510.2z"/>
</g>
<g>
	<path class="st6" d="M775.5,2651.5c-1,0-1.8-0.2-2.6-0.5c-4.9-2.2-5.5-12.4-6.2-23.2c-0.5-8.5-1.8-31.2,6.2-34.6
		c0.8-0.3,1.6-0.5,2.6-0.5c9.1,0,24.1,13.7,24.1,29.4c0,9.8-5.5,17.2-8.8,20.7C786,2648.1,780,2651.5,775.5,2651.5
		C775.5,2651.5,775.5,2651.5,775.5,2651.5z"/>
	<path class="st6" d="M775.6,2593.2c4.3,0,10.2,3.4,15,8.5c3.2,3.5,8.6,10.8,8.6,20.3c0,9.6-5.4,16.9-8.7,20.4
		c-4.8,5.2-10.7,8.5-15,8.5c-0.9,0-1.7-0.2-2.4-0.5c-4.6-2.1-5.2-12.1-5.9-22.7c-0.5-8.4-1.8-30.8,5.8-34.1
		C773.9,2593.4,774.7,2593.2,775.6,2593.2 M775.6,2592.2c-1,0-2,0.2-2.8,0.5c-8.3,3.6-7,26-6.5,35.1c0.7,11.1,1.3,21.3,6.5,23.6
		c0.8,0.4,1.7,0.5,2.8,0.5c9,0,24.7-13.5,24.7-29.9C800.2,2605.9,784.8,2592.2,775.6,2592.2L775.6,2592.2z"/>
</g>
<polygon class="st7" points="841.6,2667 823.8,2657.5 860.4,2512.7 878.2,2522.2 "/>
<polygon class="st7" points="923.3,2655.5 906.3,2667.2 858.3,2520.9 875.3,2509.2 "/>
<rect x="854.9" y="2589.9" class="st9" width="33.1" height="23.7"/>
<rect x="1038.2" y="2523.7" class="st7" width="16.1" height="131.1"/>
<rect x="1047.6" y="2627" class="st7" width="39.2" height="27.2"/>
<rect x="1079.2" y="2523.7" class="st7" width="16.1" height="131.1"/>
<g>
	<path class="st8" d="M1107,2659.1c0.2-4.3,0.3-8.5,0.5-12.8h34.9l21.9-20.8l-2.4-19.8l-15.5-12.8l-23.1-18.2
		c-0.3-0.4-0.6-0.8-1-1.1l-0.1-0.1c-0.1-0.2-0.1-0.5-0.2-0.8l-0.1-0.3h-0.1c-0.1-0.3-0.2-0.7-0.3-0.9c0-0.1,0-0.2,0-0.2
		c-0.1-0.4-0.2-0.7-0.3-0.9v-20.8c0.1-0.3,0.2-0.7,0.4-1l0.3-0.7h0c0.1-0.3,0.2-0.5,0.3-0.8c0.1-0.2,0.2-0.4,0.2-0.5l1.7-2.1
		c3.5-4.2,7-8.4,10.5-12.7c0.2-0.2,0.5-0.3,0.7-0.5c0.3-0.2,0.6-0.4,0.9-0.7c0.1-0.1,0.2-0.1,0.3-0.2c0.1,0,0.1-0.1,0.1-0.1
		c0.1-0.1,0.1-0.1,0.2-0.1l36.7-10.3l2,12l-29.7,4.3l-0.1,0.1c-3.3,3.9-6.6,7.8-9.9,11.6l-5.3,6.3v15.4l19.6,15.4
		c0.3,0.3,0.7,0.6,1.1,0.9c0.2,0.1,0.4,0.3,0.6,0.4c0.1,0.1,0.2,0.1,0.3,0.2c0,0,0.1,0.1,0.1,0.1c0.3,0.2,0.6,0.3,0.9,0.5
		c0.4,0.3,0.7,0.5,1.1,0.6l17.3,14.3c0.3,0.5,0.7,1,1.1,1.4c0.1,0.1,0.1,0.2,0.2,0.2c0.1,0.2,0.2,0.4,0.3,0.6l0.1,0.1
		c0,0,0.2,0.4,0.3,0.5c0,0.1,0.1,0.2,0.1,0.4c0,0.1,0.1,0.2,0.1,0.2c0.1,0.3,0.1,0.6,0.2,1c0,0.2,0.1,0.3,0.1,0.5l1.3,9.6
		c0,0.5,0.1,1.1,0.1,1.6c0.2,2.1,0.4,4.2,0.1,6.2c-0.1,0.5-0.2,1-0.3,1.4c-0.1,0.3-0.1,0.5-0.2,0.7l-0.1,0.2c0,0.1-0.1,0.2-0.1,0.3
		l0,0.1c-1.5,2-2.9,3.9-4.3,5.9l-0.9,1.2c-0.1,0.1-0.1,0.2-0.1,0.2l-0.4,0.5c-1.3,1.7-2.6,3.3-3.8,5l-0.1,0.1v0l-1.9,2.5
		c-0.3,0.3-0.6,0.7-0.9,1l-0.8,1.1c-1.5,1.9-2.9,3.8-4.4,5.7c-0.1,0.1-0.2,0.2-0.3,0.3c-0.1,0.1-0.3,0.3-0.4,0.4
		c0,0-0.6,0.7-0.8,0.8c-0.9,0.4-1.7,0.8-2.6,1.1l-0.3,0.1v0c-0.6,0.3-1.2,0.5-1.9,0.8c-1.4,0.6-2.8,1.1-4.3,1.6L1107,2659.1z"/>
	<path class="st5" d="M1172.9,2520.5l0.9,5.5l0.9,5.4l-29,4.2l-0.4,0.1l-0.2,0.3c-3.4,4-6.8,8-10.2,12l-4.9,5.8l-0.2,0.3v0.4v14.9
		v0.5l0.4,0.3l19.3,15.2c0.3,0.3,0.7,0.6,1.1,0.9c0.2,0.1,0.4,0.3,0.6,0.4c0.1,0.1,0.2,0.1,0.3,0.2c0.1,0,0.1,0.1,0.2,0.1
		c0.3,0.2,0.6,0.3,0.9,0.5c0.4,0.2,0.7,0.5,1.1,0.6l17.2,14.2c0.3,0.5,0.7,1,1.1,1.4l0,0c0,0,0.1,0.1,0.1,0.1l0,0l0,0
		c0.1,0.2,0.3,0.4,0.3,0.6l0.1,0.2c0,0.1,0.1,0.2,0.1,0.2c0,0.1,0.1,0.3,0.1,0.4c0,0.1,0.1,0.1,0.1,0.2c0.1,0.3,0.1,0.6,0.2,0.9
		c0,0.2,0.1,0.3,0.1,0.5c0.2,1.6,0.4,3.2,0.6,4.8c0.2,1.6,0.4,3.2,0.6,4.8c0,0.5,0.1,1.1,0.1,1.7c0.2,2,0.4,4.1,0.1,6.1
		c-0.1,0.5-0.2,0.9-0.3,1.4c-0.1,0.2-0.1,0.5-0.2,0.7l0,0.1l0,0.1l0,0l0,0c0,0.1,0,0.1-0.1,0.2c-1.5,2-3,4.1-4.4,6.1l-0.6,0.9l0,0
		l0,0c0,0-0.1,0.1-0.1,0.1l0,0c-1.4,1.8-2.8,3.7-4.2,5.5l-0.2,0.3v0l-0.7,1c-0.3,0.4-0.7,0.9-1,1.3c-0.4,0.4-0.7,0.7-0.9,1.1l-0.7,1
		l0,0.1c-1.5,1.9-2.9,3.8-4.4,5.7c-0.1,0.1-0.2,0.2-0.3,0.3c-0.1,0.1-0.2,0.3-0.4,0.4l-0.3,0.3c-0.1,0.1-0.3,0.3-0.4,0.4
		c-0.8,0.4-1.6,0.7-2.5,1l-0.6,0.3v0c-0.5,0.2-1,0.4-1.6,0.6c-1.3,0.5-2.7,1-4.2,1.6c-6.6,0.6-13.2,1.3-19.8,1.9
		c-6.4,0.6-12.8,1.2-19.2,1.9c0.2-3.9,0.3-7.8,0.5-11.7h34.2h0.4l0.3-0.3l21.5-20.5l0.4-0.3l-0.1-0.5c-0.4-3.2-0.8-6.4-1.2-9.7
		c-0.4-3.2-0.8-6.4-1.2-9.7l0-0.4l-0.3-0.3l-15.3-12.7l-23-18.2c-0.3-0.4-0.6-0.7-1-1.1c-0.1-0.2-0.1-0.5-0.2-0.8l-0.3-0.6h-0.1
		c0-0.2-0.1-0.4-0.2-0.5l0,0c0-0.1,0-0.2,0-0.2c-0.1-0.3-0.2-0.6-0.3-0.8v-20.7c0.1-0.3,0.2-0.6,0.3-0.9l0.4-1.2
		c0-0.1,0.1-0.2,0.1-0.3c0.1-0.2,0.1-0.3,0.2-0.5l0.1-0.1c4-4.8,8.1-9.7,12.1-14.6c0.2-0.2,0.4-0.3,0.6-0.5c0.3-0.2,0.6-0.4,0.9-0.7
		l0,0l0,0c0.1,0,0.1-0.1,0.2-0.1l0,0l0,0l0,0l0.1,0l0.1,0c0,0,0,0,0.1,0l12.9-3.6L1172.9,2520.5 M1173.7,2519.2l-24.3,6.8l-13,3.7
		c-0.1,0-0.1,0.1-0.2,0.1c-0.1,0-0.1,0.1-0.2,0.1c-0.1,0.1-0.2,0.1-0.3,0.2c-0.6,0.4-1.1,0.8-1.6,1.2c-4.1,5-8.2,9.9-12.3,14.9
		c-0.1,0.2-0.2,0.4-0.3,0.6c-0.2,0.5-0.4,1-0.6,1.5h0c-0.1,0.4-0.3,0.7-0.4,1.1v21c0.1,0.2,0.2,0.5,0.3,0.9c0,0.1,0,0.2,0,0.2
		c0.1,0.3,0.2,0.7,0.3,1c0,0.1,0.1,0.2,0.1,0.3h0.1c0.1,0.3,0.2,0.5,0.2,0.8c0.1,0.1,0.1,0.2,0.2,0.3c0.4,0.3,0.7,0.7,1,1.1
		l23.1,18.3l15.3,12.7c0.8,6.4,1.6,12.9,2.4,19.3l-21.5,20.5H1107c-0.2,4.6-0.4,9.2-0.5,13.9c13.4-1.3,26.8-2.6,40.2-3.9
		c1.5-0.5,2.9-1.1,4.3-1.7c0.7-0.3,1.5-0.6,2.2-0.9v0c0.9-0.4,1.8-0.7,2.7-1.1c0.3-0.3,0.6-0.6,0.8-0.9c0.2-0.2,0.5-0.5,0.7-0.7
		c1.5-1.9,2.9-3.8,4.4-5.7c0.3-0.4,0.5-0.7,0.8-1.1c0.3-0.4,0.6-0.7,0.9-1c0.7-0.9,1.3-1.7,2-2.6v0c1.4-1.8,2.9-3.7,4.3-5.6
		c0-0.1,0.1-0.1,0.1-0.2c1.7-2.4,3.4-4.7,5.2-7.1l0,0v0c0-0.1,0.1-0.3,0.1-0.4c0-0.1,0-0.1,0.1-0.2c0.1-0.2,0.1-0.5,0.2-0.7
		c0.1-0.5,0.2-1,0.3-1.5c0.3-2.6-0.1-5.3-0.3-8c-0.4-3.2-0.9-6.5-1.3-9.7c0-0.1-0.1-0.3-0.1-0.4c-0.1-0.3-0.1-0.7-0.2-1
		c0-0.1-0.2-0.5-0.2-0.5c0,0,0,0,0.1,0.1c0,0,0-0.1,0-0.1c-0.1-0.2-0.2-0.5-0.4-0.7c-0.1-0.2-0.3-0.4-0.4-0.6c0-0.1-0.1-0.2-0.2-0.3
		l-0.1-0.1c-0.4-0.4-0.8-0.9-1.1-1.4l-17.4-14.4c-0.4-0.2-0.8-0.4-1.1-0.7c0,0,0,0,0,0c-0.3-0.1-0.6-0.3-0.9-0.5c0,0-0.1,0-0.1-0.1
		c-0.1-0.1-0.2-0.1-0.3-0.2c-0.2-0.1-0.4-0.2-0.5-0.3c-0.4-0.3-0.7-0.5-1-0.9l-19.4-15.3v-14.9c5-5.9,10-11.9,15.1-17.8l30-4.4
		C1175.1,2527.9,1174.4,2523.6,1173.7,2519.2L1173.7,2519.2z"/>
</g>
<g>
	<path class="st6" d="M1107.6,2651c0.2-3.8,0.3-7.5,0.5-11.2h35.4l22.3-18.5l-2.5-17.6l-15.7-11.4l-23.5-16.2c-0.3-0.4-0.6-0.7-1-1
		l-0.1-0.1c-0.1-0.2-0.1-0.5-0.2-0.7l-0.1-0.3h-0.1c-0.1-0.3-0.2-0.6-0.3-0.8c0-0.1,0-0.1,0-0.2c-0.1-0.3-0.2-0.6-0.3-0.8v-18.4
		c0.1-0.3,0.2-0.6,0.4-0.9l0.3-0.7h0c0.1-0.2,0.2-0.4,0.3-0.6c0.1-0.2,0.2-0.3,0.2-0.5l1-1.1c3.8-4,7.6-8,11.4-12
		c0.2-0.1,0.5-0.3,0.7-0.5c0.3-0.2,0.6-0.4,0.9-0.6c0.1-0.1,0.2-0.1,0.3-0.2c0.1,0,0.1-0.1,0.1-0.1c0.1,0,0.1-0.1,0.2-0.1l37.3-9.2
		l2,10.5l-30.1,3.8l-0.1,0.1c-3.5,3.6-7,7.2-10.4,10.8l-5,5.2v13.7l19.9,13.7c0.3,0.3,0.7,0.5,1.1,0.8c0.2,0.1,0.4,0.2,0.6,0.3
		c0.1,0,0.2,0.1,0.3,0.2c0,0,0.1,0,0.1,0.1c0.3,0.1,0.6,0.3,0.9,0.4c0.4,0.2,0.7,0.4,1.1,0.6l17.5,12.7c0.3,0.5,0.7,0.9,1.1,1.2
		c0.1,0.1,0.1,0.2,0.2,0.2c0.1,0.2,0.3,0.4,0.4,0.6c0,0,0.2,0.3,0.3,0.4c0,0.1,0.1,0.2,0.1,0.3c0,0.1,0.1,0.2,0.1,0.2
		c0.1,0.3,0.1,0.5,0.2,0.8c0,0.1,0.1,0.3,0.1,0.4l1.3,8.6c0,0.5,0.1,1,0.1,1.5c0.2,1.8,0.4,3.7,0.2,5.5c-0.1,0.4-0.2,0.9-0.3,1.2
		c-0.1,0.2-0.1,0.4-0.2,0.6l-0.1,0.2c0,0.1-0.1,0.2-0.1,0.3l0,0c-1.5,1.8-3,3.6-4.5,5.4l-0.7,0.8c-0.1,0.1-0.1,0.1-0.2,0.2
		c-1.4,1.6-2.8,3.2-4.3,4.9l-0.1,0.1v0l-1.9,2.2c-0.3,0.3-0.6,0.6-0.9,0.9l-0.8,1c-1.5,1.7-3,3.4-4.5,5.1c-0.1,0.1-0.2,0.2-0.3,0.2
		c-0.1,0.1-0.3,0.2-0.4,0.4c0,0-0.6,0.6-0.8,0.7c-0.9,0.3-1.8,0.7-2.6,1l-0.3,0.1v0c-0.6,0.2-1.3,0.4-1.9,0.7
		c-1.5,0.5-2.9,1-4.4,1.4L1107.6,2651z"/>
	<path class="st6" d="M1174.7,2528.2l1,5.3l0.8,4.1l-29.4,3.7l-0.3,0l-0.2,0.3c-3.4,3.5-6.8,7-10.2,10.5l-5.1,5.3l-0.3,0.3v0.4v13.2
		v0.5l0.4,0.3l19.6,13.5c0.3,0.3,0.7,0.6,1.1,0.8c0.2,0.1,0.4,0.2,0.6,0.4c0.1,0.1,0.2,0.1,0.3,0.2c0.1,0,0.1,0.1,0.2,0.1
		c0.2,0.1,0.5,0.3,0.9,0.4c0.4,0.2,0.7,0.4,1.1,0.6l17.4,12.6c0.3,0.4,0.7,0.9,1.1,1.2l0,0c0,0,0.1,0.1,0.1,0.1l0,0l0,0
		c0.1,0.2,0.2,0.4,0.3,0.5l0.1,0.2c0,0.1,0.1,0.1,0.1,0.2c0,0.1,0.1,0.3,0.1,0.4c0,0.1,0.1,0.1,0.1,0.1c0.1,0.2,0.1,0.5,0.2,0.7
		c0,0.2,0.1,0.3,0.1,0.4c0.2,1.4,0.4,2.8,0.6,4.2c0.2,1.4,0.4,2.8,0.6,4.3c0,0.5,0.1,1,0.1,1.5c0.2,1.8,0.4,3.6,0.2,5.4
		c-0.1,0.4-0.2,0.8-0.3,1.2c-0.1,0.2-0.1,0.4-0.2,0.6l0,0.1l0,0.1l0,0l0,0c0,0,0,0.1,0,0.1c-1.5,1.8-3,3.6-4.6,5.5l-0.6,0.7
		c0,0-0.1,0.1-0.1,0.1c-1.4,1.6-2.9,3.3-4.3,4.9l-0.3,0.3v0l-0.7,0.8c-0.3,0.4-0.7,0.8-1,1.2c-0.4,0.3-0.7,0.6-1,1l-0.1,0.2
		l-0.6,0.8c-1.5,1.7-3,3.4-4.4,5c-0.1,0.1-0.2,0.2-0.3,0.3c-0.1,0.1-0.2,0.2-0.4,0.4l-0.3,0.3c-0.1,0.1-0.3,0.2-0.4,0.4
		c-0.8,0.3-1.7,0.6-2.5,0.9l-0.7,0.2v0c-0.5,0.2-1,0.4-1.6,0.5c-1.3,0.5-2.8,0.9-4.3,1.4c-6.8,0.6-13.6,1.2-20.3,1.7
		c-6.4,0.5-12.9,1.1-19.3,1.6c0.2-3.4,0.3-6.8,0.5-10.2h34.8h0.4l0.3-0.2l21.9-18.2l0.4-0.4l-0.1-0.6c-0.4-2.9-0.8-5.7-1.2-8.6
		c-0.4-2.9-0.8-5.7-1.2-8.6l-0.1-0.4l-0.3-0.2l-15.6-11.2l-23.4-16.1c-0.3-0.3-0.6-0.6-0.9-0.9c-0.1-0.2-0.1-0.4-0.2-0.7l-0.3-0.6
		h-0.1c0-0.2-0.1-0.3-0.1-0.4l0,0c0-0.1,0-0.2-0.1-0.2c-0.1-0.3-0.2-0.5-0.3-0.7v-18.3c0.1-0.3,0.2-0.5,0.3-0.8l0.5-1.1
		c0-0.1,0.1-0.1,0.1-0.2c0.1-0.1,0.1-0.3,0.2-0.4c4.1-4.3,8.3-8.7,12.4-13c0.2-0.1,0.4-0.3,0.6-0.4c0.3-0.2,0.6-0.4,0.9-0.6l0,0l0,0
		c0.1,0,0.1-0.1,0.2-0.1l0,0l0,0l0,0l0.1,0l0.1,0c0,0,0,0,0.1,0l13.1-3.2L1174.7,2528.2 M1175.5,2527l-24.7,6.1l-13.2,3.2
		c-0.1,0-0.1,0.1-0.2,0.1c-0.1,0-0.1,0.1-0.2,0.1c-0.1,0.1-0.2,0.1-0.3,0.2c-0.6,0.4-1.1,0.7-1.6,1.1c-4.2,4.4-8.4,8.8-12.6,13.2
		c-0.1,0.2-0.2,0.4-0.3,0.5c-0.2,0.4-0.4,0.9-0.6,1.3h0c-0.1,0.3-0.3,0.6-0.4,1v18.6c0.1,0.2,0.2,0.4,0.3,0.8c0,0.1,0,0.1,0,0.2
		c0.1,0.3,0.2,0.6,0.3,0.9c0,0.1,0.1,0.1,0.1,0.2h0.1c0.1,0.2,0.2,0.5,0.2,0.7c0.1,0.1,0.1,0.2,0.2,0.2c0.4,0.3,0.7,0.6,1,1
		l23.5,16.2l15.6,11.2c0.8,5.7,1.6,11.4,2.4,17.1l-21.9,18.2h-35.7c-0.2,4.1-0.4,8.2-0.6,12.3c13.6-1.2,27.3-2.3,40.9-3.5
		c1.5-0.5,3-1,4.4-1.5c0.7-0.3,1.5-0.5,2.2-0.8v0c0.9-0.3,1.8-0.7,2.7-1c0.3-0.3,0.6-0.5,0.9-0.8c0.2-0.2,0.5-0.4,0.7-0.7
		c1.5-1.7,3-3.4,4.5-5.1c0.3-0.3,0.5-0.7,0.8-1c0.3-0.3,0.6-0.6,0.9-0.9c0.7-0.8,1.4-1.5,2-2.3v0c1.5-1.6,2.9-3.3,4.4-4.9
		c0,0,0.1-0.1,0.1-0.1c1.8-2.1,3.5-4.2,5.3-6.3l0,0v0c0-0.1,0.1-0.2,0.1-0.4c0-0.1,0-0.1,0.1-0.2c0.1-0.2,0.1-0.4,0.2-0.7
		c0.1-0.4,0.2-0.9,0.3-1.3c0.3-2.3-0.1-4.7-0.3-7.1c-0.4-2.9-0.9-5.7-1.3-8.6c0-0.1-0.1-0.2-0.1-0.4c-0.1-0.3-0.1-0.6-0.2-0.9
		c0-0.1-0.2-0.5-0.2-0.5c0,0,0,0,0.1,0.1c0,0,0-0.1,0-0.1c-0.1-0.2-0.2-0.4-0.4-0.6c-0.1-0.2-0.3-0.4-0.4-0.6c0-0.1-0.1-0.2-0.2-0.2
		l-0.1-0.1c-0.4-0.4-0.8-0.8-1.1-1.3l-17.7-12.7c-0.4-0.2-0.8-0.4-1.1-0.6c0,0,0,0,0,0c-0.3-0.1-0.6-0.3-0.9-0.4c0,0-0.1,0-0.1-0.1
		c-0.1,0-0.2-0.1-0.3-0.2c-0.2-0.1-0.4-0.2-0.5-0.3c-0.4-0.2-0.7-0.5-1.1-0.8l-19.7-13.5v-13.2c5.1-5.3,10.2-10.5,15.3-15.8
		l30.5-3.9C1176.9,2534.7,1176.2,2530.8,1175.5,2527L1175.5,2527z"/>
</g>
<g>
	<path class="st5" d="M936.4,2657.7c3.1-6.7,5.8-13.6,8.1-20.6c12.2-37.6,12.1-78.4-0.2-121.1h33.9v132.2L936.4,2657.7z"/>
	<path d="M977.6,2516.5v131.3l-20.8,4.8l-19.6,4.5c2.9-6.4,5.5-13,7.7-19.7c7-21.7,10-44.8,8.8-68.8c-0.9-17-3.8-34.5-8.8-52H977.6
		 M978.6,2515.5c-11.7,0-23.4,0-35.1,0c8.2,28,16.2,73,0.4,121.5c-2.5,7.7-5.4,14.8-8.5,21.5c14.4-3.3,28.8-6.6,43.1-9.9V2515.5
		L978.6,2515.5z"/>
</g>
<g>
	<path class="st5" d="M977.4,2581.1c-6.1,0-9.8-5.5-11.8-10c-2.6-5.9-4-13.9-4-22.5s1.4-16.6,4-22.5c2-4.6,5.7-10,11.8-10
		c21.4,0,38.9,14.6,38.9,32.6S998.9,2581.1,977.4,2581.1z"/>
	<path class="st5" d="M977.4,2516.5c21.2,0,38.4,14.4,38.4,32.1s-17.2,32.1-38.4,32.1c-5.8,0-9.4-5.3-11.3-9.7
		c-2.6-5.9-4-13.8-4-22.3C962.1,2532.6,967.4,2516.5,977.4,2516.5 M977.4,2515.5c-21.8,0-21.8,66.1,0,66.1s39.4-14.8,39.4-33.1
		S999.2,2515.5,977.4,2515.5L977.4,2515.5z"/>
</g>
<g>
	<path class="st5" d="M977.5,2648c-6.1,0-9.7-5.5-11.7-10.2c-2.6-6-4-14.1-4-22.8s1.4-16.8,4-22.8c2-4.6,5.7-10.2,11.7-10.2
		c21.4,0,38.8,14.8,38.8,33S998.9,2648,977.5,2648z"/>
	<path class="st5" d="M977.5,2582.6c21.1,0,38.3,14.6,38.3,32.5s-17.2,32.5-38.3,32.5c-5.8,0-9.3-5.4-11.3-9.9c-2.6-5.9-4-14-4-22.6
		C962.3,2598.9,967.5,2582.6,977.5,2582.6 M977.5,2581.6c-21.7,0-21.7,66.9,0,66.9s39.3-15,39.3-33.5
		C1016.8,2596.6,999.2,2581.6,977.5,2581.6L977.5,2581.6z"/>
</g>
<g>
	<path class="st6" d="M971.3,2573.4c-1,0-1.9-0.1-2.6-0.4c-5-1.7-5.6-9.8-6.2-18.4c-0.5-6.8-1.9-24.7,6.2-27.5
		c0.8-0.3,1.7-0.4,2.7-0.4c4.6,0,10.8,2.7,15.7,6.9c3.3,2.8,8.9,8.7,8.9,16.4c0,7.7-5.6,13.6-9,16.4
		C981.9,2570.7,975.8,2573.4,971.3,2573.4C971.3,2573.4,971.3,2573.4,971.3,2573.4z"/>
	<path class="st6" d="M971.3,2527.2c9.1,0,24.1,10.7,24.1,22.8c0,12.2-15,22.8-24.1,22.8c-0.9,0-1.8-0.1-2.5-0.4
		c-4.7-1.6-5.3-9.6-5.9-17.9c-0.5-6.7-1.8-24.4,5.9-26.9C969.5,2527.4,970.4,2527.2,971.3,2527.2 M971.3,2526.2c-1,0-2,0.1-2.9,0.4
		c-8.5,2.8-7.1,20.7-6.6,28c0.7,8.8,1.3,16.9,6.6,18.8c0.8,0.3,1.8,0.4,2.8,0.4c9.1,0,25.1-10.8,25.1-23.8
		C996.4,2537.1,980.7,2526.2,971.3,2526.2L971.3,2526.2z"/>
</g>
<g>
	<path class="st6" d="M971,2638.8c-1,0-1.9-0.1-2.6-0.4c-5-1.7-5.6-9.8-6.2-18.4c-0.5-6.8-1.9-24.7,6.2-27.5
		c0.8-0.3,1.7-0.4,2.7-0.4c4.6,0,10.8,2.7,15.7,6.9c3.3,2.8,8.9,8.7,8.9,16.4c0,7.7-5.6,13.6-9,16.4
		C981.7,2636.1,975.5,2638.8,971,2638.8L971,2638.8z"/>
	<path class="st6" d="M971,2592.7c4.5,0,10.5,2.7,15.4,6.8c7.6,6.4,8.7,12.8,8.7,16c0,12.2-15,22.8-24.1,22.8
		c-0.9,0-1.8-0.1-2.5-0.4c-4.7-1.6-5.3-9.6-5.9-17.9c-0.5-6.7-1.8-24.4,5.9-26.9C969.2,2592.8,970.1,2592.7,971,2592.7 M971,2591.7
		c-1,0-2,0.1-2.9,0.4c-8.5,2.8-7.1,20.7-6.6,28c0.7,8.8,1.3,16.9,6.6,18.8c0.8,0.3,1.8,0.4,2.8,0.4c9.1,0,25.1-10.8,25.1-23.8
		C996.1,2602.6,980.4,2591.7,971,2591.7L971,2591.7z"/>
</g>
<rect x="1189.2" y="2522" class="st7" width="23.2" height="133.3"/>
<rect x="1249.3" y="2523.1" class="st7" width="23.2" height="133.3"/>
<rect x="1212.4" y="2582.6" class="st9" width="36.9" height="21"/>
<rect x="1300.6" y="2522.4" class="st9" width="22.9" height="134.2"/>
<polygon class="st9" points="1322.8,2601 1309,2576.9 1355.5,2530.9 1369.3,2554.9 "/>
<polygon class="st9" points="1366.8,2639.8 1350.6,2661.1 1308.1,2605.2 1324.3,2583.9 "/>
<polygon class="st7" points="1392.3,2663 1374.5,2653.5 1411.1,2508.7 1429,2518.2 "/>
<polygon class="st7" points="1474,2651.5 1457,2663.2 1409.1,2516.9 1426,2505.2 "/>
<rect x="1405.6" y="2585.9" class="st9" width="33.1" height="23.7"/>
</svg>
